# xmcd
# Track frame offsets:
# 150
# 16648
# 29300
# 47950
# 59665
# 80972
# 92355
# 108278
# 120928
# 141438
# 163189
# 177492
# 193312
#
# Disc length: 2800 seconds
# Revision: 0
# Processed by: cddbd v1.5.2PL0 Copyright (c) Steve Scherf et al.
# Submitted via: VisiTrax 2.10.2.252 - For more info visit www.synapsa.com
#
DISCID=b30aee0d
DTITLE=The Arrendators - Soul Revue
DYEAR=2008
DGENRE=Blues
TTITLE0=It*s how you make it good
TTITLE1=My man
TTITLE2=Jealous kind
TTITLE3=Here he comes
TTITLE4=The forecast
TTITLE5=I*d rather be an old mans weetheart
TTITLE6=I*m just a prisoner
TTITLE7=Somebody told you
TTITLE8=You can have my husband
TTITLE9=How come my bulldog don*t bark
TTITLE10=Don*t set me free
TTITLE11=I can*t let you go
TTITLE12=Walk away
EXTD=
EXTT0=
EXTT1=
EXTT2=
EXTT3=
EXTT4=
EXTT5=
EXTT6=
EXTT7=
EXTT8=
EXTT9=
EXTT10=
EXTT11=
EXTT12=
PLAYORDER=
